HIERARCHY
ROOT Bip001_Pelvis
{
  OFFSET 34.4345 95.6767 -26.8758
  CHANNELS 6 Xposition Yposition Zposition Zrotation Xrotation Yrotation
  JOINT Bip001_Spine
  {
    OFFSET 1.4188e-005 10.2191 -0.0116013
    CHANNELS 3 Zrotation Xrotation Yrotation
    JOINT Bip001_L_Thigh
    {
      OFFSET 11.0458 -10.2192 0.0116197
      CHANNELS 3 Zrotation Xrotation Yrotation
      JOINT Bip001_L_Calf
      {
        OFFSET -0.707118 -44.0221 0.360014
        CHANNELS 3 Zrotation Xrotation Yrotation
        JOINT Bip001_L_Foot
        {
          OFFSET -0.651902 -40.5938 -3.56146
          CHANNELS 3 Zrotation Xrotation Yrotation
          JOINT Bip001_L_Toe0
          {
            OFFSET 0.0530839 -10.2181 13.1504
            CHANNELS 3 Zrotation Xrotation Yrotation
            End Site
            {
              OFFSET -1.02532e-005 0 7.55606
            }
          }
        }
      }
    }
    JOINT Bip001_R_Thigh
    {
      OFFSET -11.0458 -10.2191 0.0115893
      CHANNELS 3 Zrotation Xrotation Yrotation
      JOINT Bip001_R_Calf
      {
        OFFSET 0.706994 -44.0221 0.35984
        CHANNELS 3 Zrotation Xrotation Yrotation
        JOINT Bip001_R_Foot
        {
          OFFSET 0.651786 -40.5938 -3.5613
          CHANNELS 3 Zrotation Xrotation Yrotation
          JOINT Bip001_R_Toe0
          {
            OFFSET -0.0531479 -10.2181 13.1504
            CHANNELS 3 Zrotation Xrotation Yrotation
            End Site
            {
              OFFSET -1.02894e-005 0 7.55606
            }
          }
        }
      }
    }
    JOINT Bip001_Spine1
    {
      OFFSET 1.87041e-005 14.5736 1.08638
      CHANNELS 3 Zrotation Xrotation Yrotation
      JOINT Bip001_Spine2
      {
        OFFSET 2.24614e-005 14.5058 -1.69078
        CHANNELS 3 Zrotation Xrotation Yrotation
        JOINT Bip001_Neck
        {
          OFFSET 2.20278e-005 15.3945 -0.489414
          CHANNELS 3 Zrotation Xrotation Yrotation
          JOINT Bip001_L_Clavicle
          {
            OFFSET 6.06036 -0.000579998 0.00836775
            CHANNELS 3 Zrotation Xrotation Yrotation
            JOINT Bip001_L_UpperArm
            {
              OFFSET 11.5509 -0.0600302 0.00193952
              CHANNELS 3 Zrotation Xrotation Yrotation
              JOINT Bip001_L_Forearm
              {
                OFFSET 25.9523 0.0806089 -2.15551
                CHANNELS 3 Zrotation Xrotation Yrotation
                JOINT Bip001_L_Hand
                {
                  OFFSET 32.2475 0.153767 1.63968
                  CHANNELS 3 Zrotation Xrotation Yrotation
                  JOINT Bip001_L_Finger0
                  {
                    OFFSET 6.04639 -2.20976 5.90322
                    CHANNELS 3 Zrotation Xrotation Yrotation
                    End Site
                    {
                      OFFSET 4.22375 -1.43895 0.606485
                    }
                  }
                  JOINT Bip001_L_Finger1
                  {
                    OFFSET 11.0826 -0.704819 -0.198153
                    CHANNELS 3 Zrotation Xrotation Yrotation
                    End Site
                    {
                      OFFSET 6.20027 -0.397518 -0.0787166
                    }
                  }
                }
              }
            }
          }
          JOINT Bip001_R_Clavicle
          {
            OFFSET -6.06037 -0.000563197 0.00835105
            CHANNELS 3 Zrotation Xrotation Yrotation
            JOINT Bip001_R_UpperArm
            {
              OFFSET -11.5509 -0.0599978 0.00190698
              CHANNELS 3 Zrotation Xrotation Yrotation
              JOINT Bip001_R_Forearm
              {
                OFFSET -25.9523 0.0806822 -2.15589
                CHANNELS 3 Zrotation Xrotation Yrotation
                JOINT Bip001_R_Hand
                {
                  OFFSET -32.2475 0.153859 1.63989
                  CHANNELS 3 Zrotation Xrotation Yrotation
                  JOINT Bip001_R_Finger0
                  {
                    OFFSET -6.04641 -2.20976 5.90317
                    CHANNELS 3 Zrotation Xrotation Yrotation
                    End Site
                    {
                      OFFSET -4.22376 -1.43895 0.60647
                    }
                  }
                  JOINT Bip001_R_Finger1
                  {
                    OFFSET -11.0826 -0.704794 -0.198182
                    CHANNELS 3 Zrotation Xrotation Yrotation
                    End Site
                    {
                      OFFSET -6.20028 -0.397504 -0.0787333
                    }
                  }
                }
              }
            }
          }
          JOINT Bip001_Head
          {
            OFFSET 1.09673e-005 11.2744 2.05948
            CHANNELS 3 Zrotation Xrotation Yrotation
            End Site
            {
              OFFSET 2.89576e-005 20.8808 -2.77728e-005
            }
          }
        }
      }
    }
  }
}
MOTION
Frames:	12
Frame Time:	0.04
40.8372 93.6757 -30.5961 -4.94855 -6.49835 -0.114914 0.168542 2.95587 -0.675769 7.97006 -6.84937 11.6795 -0.623967 29.0595 -0.346528 7.88068 -15.0616 0.690838 2.00199 -5.22138 -1.36834 -4.89323 -1.3025 -1.05114 0.339802 15.7618 0.685532 -7.21099 -4.89149 -5.28318 4.41956 -13.8754 4.58575 0.368841 5.90935 -1.37297 0.370416 5.9094 -1.36774 6.2343 -4.19002 -6.69033 -26.4076 4.68063 -3.47035 -58.1461 35.9497 15.4011 16.4989 0.0542711 -27.6877 6.45643 1.13973 -3.76948 -6.36111e-015 0 -1.59028e-015 -3.18055e-015 3.18056e-015 -1.59028e-015 7.73902 10.3446 26.0061 29.6515 -24.5764 30.239 -10.578 -31.3052 46.4241 -31.07 -17.7797 -4.536 3.18055e-015 4.77083e-015 -7.95139e-016 3.18055e-015 3.18056e-015 1.59028e-015 -8.43378 -2.26877 -3.14945 
40.8439 94.2896 -31.205 -5.02957 -4.68574 -3.77975 0.405389 2.82637 -0.560138 7.79265 -6.42102 12.6885 -1.78716 25.7372 2.44908 6.8415 -14.1015 0.556319 1.78106 -4.70957 -1.27087 -5.01723 -2.34212 0.174573 -0.268143 12.0549 0.992566 -6.09032 -3.02132 -3.3624 4.19411 -13.3326 4.45175 0.839995 5.64855 -1.1424 0.839997 5.64856 -1.1424 2.72707 -7.02041 -4.71577 -24.3142 8.09661 -2.49438 -57.5482 38.567 13.7068 15.8661 -0.226378 -25.1469 4.40853 1.09792 -3.20342 -3.18055e-015 9.54166e-015 -0 -3.18055e-015 6.36111e-015 -1.59028e-015 9.02673 13.3232 28.0471 20.501 -16.2222 21.1713 -15.5735 -32.4169 42.5722 -30.692 -18.3446 -2.2276 -1.65521e-032 2.38542e-015 3.97569e-016 1.65522e-032 2.38542e-015 -3.97569e-016 -5.07683 -1.0959 -2.82408 
40.8548 94.785 -31.5934 -4.57359 -3.68022 -6.2015 0.370028 2.78847 0.00079867 6.65052 -5.66539 12.0107 -1.5872 22.2296 4.67609 5.77296 -12.607 0.425978 1.66932 -4.62076 -0.877107 -5.40557 -2.47472 -1.28599 -0.961344 8.80124 0.930826 -4.55311 -1.87017 -0.420978 3.93043 -12.7343 4.37023 0.742538 5.57738 -0.0198031 0.741114 5.57772 -0.0181424 3.26573 -8.21566 -5.1965 -25.0998 9.46099 -3.54472 -55.9199 41.3337 11.6495 15.2581 -0.347188 -22.6965 3.27493 1.13631 -2.50256 3.18055e-015 0 -0 3.18055e-015 0 -0 8.29727 14.4013 27.7135 20.3125 -14.6021 16.3126 -21.7087 -23.8063 43.3677 -31.061 -17.7456 -1.11191 -6.36111e-015 -4.96962e-015 -1.49088e-015 -3.18055e-015 -4.37326e-015 2.68359e-015 -4.74654 -1.72673 -3.25763 
40.832 95.1374 -31.823 -4.09344 -2.87212 -7.64844 0.281642 2.54444 0.177595 5.64333 -4.95512 10.909 -1.23884 19.4153 6.92798 4.9285 -11.3053 0.343108 1.51215 -4.58272 -0.633997 -5.81261 -2.14847 -2.72978 -1.13695 5.98384 0.779817 -3.12996 -0.968392 1.90017 3.60872 -11.9422 4.19478 0.561388 5.08993 0.363009 0.559625 5.08995 0.352727 4.69341 -6.45137 -5.4754 -25.8472 7.74754 -4.68345 -55.0787 43.194 10.3076 15.1451 -0.549183 -21.5953 2.5013 1.99219 -1.88476 3.18055e-015 0 -0 -0 0 7.95139e-016 10.4121 13.5172 27.058 19.6542 -14.727 13.3455 -24.5997 -15.9116 45.8961 -29.3728 -17.4719 0.513198 -9.54166e-015 7.95139e-016 -3.97569e-015 -6.36111e-015 -2.38542e-015 -1.59028e-015 -4.87871 -3.44596 -3.25012 
40.6975 95.3744 -31.8654 -3.22076 -2.53169 -8.94374 0.0774833 2.45104 0.0622767 4.92143 -3.60636 11.0672 -1.50099 16.4391 8.69517 3.47061 -10.8854 0.269439 1.39883 -3.67651 -0.712482 -6.54526 -2.22434 -2.80198 -0.970578 4.78804 0.640818 -2.26656 -0.788515 3.19116 3.37235 -11.3307 4.03803 0.148564 4.90213 0.116405 0.150285 4.90212 0.119095 5.12176 -5.27482 -4.58148 -25.1619 6.65173 -4.70632 -53.5475 41.1197 7.82797 15.6854 1.56471 -21.8951 3.15762 2.04337 -2.01514 -0 0 1.59028e-015 -0 0 1.59028e-015 12.1693 12.5421 25.5098 24.1615 -17.1684 13.1154 -26.7574 -7.91063 50.4562 -26.4631 -16.9044 1.64834 6.36111e-015 -3.97569e-015 -3.18055e-015 6.36111e-015 -3.97569e-015 -2.38542e-015 -4.41108 -4.60666 -2.37296 
40.6175 95.4843 -31.7796 -2.21664 -2.9847 -10.0233 -0.0745529 2.51992 -0.384718 3.56577 -1.54577 13.4357 -0.90491 13.1086 7.71457 3.41093 -9.39885 0.207401 1.45487 -3.76258 -0.817732 -7.70592 -2.42122 -2.22 -0.61475 5.1889 0.655555 -1.8325 -1.35752 3.99628 3.20703 -10.9059 3.93014 -0.144166 5.04052 -0.766785 -0.138251 5.04043 -0.766534 3.52553 -4.26995 -2.58456 -23.9564 6.08826 -4.49851 -51.3118 37.6563 5.44145 15.5705 1.8679 -23.0637 5.48902 1.96253 -2.735 3.53112e-031 -6.36111e-015 3.18055e-015 8.82782e-032 -3.18056e-015 1.59028e-015 15.6742 11.9614 24.8626 27.8118 -17.5725 9.96408 -27.8203 -4.30853 55.2368 -22.2871 -16.3677 2.08339 -3.18055e-015 -1.11319e-014 -4.77083e-015 -3.18055e-015 -7.95139e-015 -4.77083e-015 -2.43629 -5.54546 -1.1399 
40.2701 95.5099 -32.0814 -2.12085 -2.52647 -10.4383 0.00368817 2.45512 -0.633736 3.67268 -1.72739 14.6229 -0.74917 12.5412 7.24579 2.86999 -9.15163 0.206109 1.25784 -3.48326 -0.660961 -7.49333 -3.23535 -0.10881 -0.468319 5.43589 0.442257 -2.22181 -1.31143 2.86575 3.18768 -10.8429 3.87379 0.0346278 4.91005 -1.26939 0.0346287 4.91005 -1.26938 3.71725 -3.20644 -1.58743 -24.2048 5.51594 -5.81369 -49.8891 34.7969 3.76728 14.687 -0.188081 -24.5775 7.41674 1.73009 -3.18063 8.82781e-032 -3.18055e-015 1.59028e-015 -6.36111e-015 3.18056e-015 1.59028e-015 17.7255 11.1059 23.6618 30.4488 -15.0524 6.33448 -26.3417 -4.53262 57.5005 -16.1525 -15.9445 2.76581 3.18055e-015 -7.95139e-015 -3.18055e-015 3.18055e-015 -4.77083e-015 -1.59028e-015 -2.41106 -6.60649 -0.14858 
39.9149 95.4881 -32.3266 -2.1485 -2.37495 -11.0883 0.102888 2.49411 -0.719159 3.83852 -2.03892 15.6788 -0.569091 12.7678 6.77008 3.21832 -8.78667 0.206298 1.41889 -3.89334 -0.745917 -7.18427 -4.24943 0.515084 -0.60902 6.5655 0.532185 -2.46875 -1.69536 2.86775 3.1847 -10.8387 3.87338 0.237495 4.98673 -1.44487 0.237497 4.98673 -1.44488 4.13434 -2.51693 -0.825878 -24.7166 5.43789 -7.65366 -48.111 33.1534 1.77273 13.4741 -1.87684 -25.53 8.82579 0.505983 -3.97942 1.76556e-031 -6.36111e-015 1.59028e-015 -3.18055e-015 -3.18056e-015 3.18055e-015 18.1247 9.99022 21.8222 34.8476 -9.80921 4.22798 -27.7563 -4.09563 55.9394 -11.2589 -15.336 4.37554 -3.18055e-015 3.18055e-015 -6.36111e-015 -3.18055e-015 1.59028e-015 -3.18055e-015 -2.77526 -7.28963 0.778987 
39.5935 95.4376 -32.5458 -2.23507 -2.38804 -11.7869 0.175178 2.59162 -0.910342 4.13887 -2.39988 14.9947 -0.868192 13.4114 8.18946 3.4559 -8.72934 0.206884 1.54139 -4.25243 -0.74716 -6.91058 -5.11657 0.786589 -0.633821 7.632 0.878263 -2.6943 -2.16076 3.0285 3.18515 -10.8112 3.88045 0.3923 5.18012 -1.83143 0.3923 5.18012 -1.83142 3.54447 -2.14356 0.412799 -24.0177 5.48515 -8.4659 -46.181 34.2776 -0.547331 13.1201 -4.3188 -26.9726 8.42784 0.959332 -3.20085 3.18055e-015 -7.95139e-015 -1.59028e-015 -0 -6.36111e-015 -0 20.0628 9.49047 20.658 38.2879 -5.02421 1.28238 -29.3534 -2.39657 53.3267 -9.97208 -14.1526 5.03623 0 2.38542e-015 -0 0 1.59028e-015 -0 -1.99743 -8.02003 1.72958 
39.343 95.3387 -32.6292 -2.0965 -2.61662 -13.0879 0.161408 2.68058 -0.886227 4.11573 -2.21234 15.7838 -0.870561 13.7219 8.61987 3.2949 -8.92525 0.207739 1.66862 -4.34376 -0.842165 -6.87079 -6.20445 1.26168 -0.669417 9.42747 1.32753 -2.93608 -2.96839 3.27535 3.20938 -10.8932 3.91494 0.364843 5.35833 -1.78296 0.364845 5.35833 -1.78297 3.41963 -1.86172 1.35727 -23.4307 5.57917 -9.49605 -44.6233 35.0023 -2.57975 13.46 -4.59934 -28.2582 8.92953 1.19336 -3.46432 -6.36111e-015 -1.59028e-015 1.59028e-015 -6.36111e-015 -4.77083e-015 1.59028e-015 20.571 8.80393 19.3217 42.5921 1.1095 -1.65657 -30.7848 -0.828867 49.4077 -7.74306 -13.0319 5.21455 -3.97569e-016 0 3.18055e-015 -0 -3.18056e-015 -0 -1.71086 -8.26733 2.56796 
39.1392 95.2284 -32.6405 -1.9379 -2.7653 -14.2337 0.151798 2.68333 -0.862459 3.86461 -2.06494 15.9369 -0.633088 14.0056 9.37827 3.21147 -9.02802 0.208596 1.7618 -4.53417 -0.81108 -6.85828 -7.16097 1.26931 -0.843315 11.1193 1.814 -3.18559 -3.76822 3.87095 3.26697 -11.0441 3.95195 0.344665 5.36402 -1.73491 0.344665 5.36404 -1.73492 3.60036 -1.2047 2.10812 -23.3293 5.36316 -10.8908 -43.5444 35.8316 -3.41692 14.5559 -4.41098 -29.8471 9.27172 0.688209 -4.68495 1.32417e-031 3.18055e-015 -2.38542e-015 -3.18055e-015 3.18056e-015 -0 20.8562 7.66381 17.7884 46.7649 8.22448 -3.41178 -32.377 2.10344 42.6909 -4.18378 -11.6394 6.31493 1.59028e-015 -7.95139e-016 -1.90833e-014 3.53113e-031 1.59028e-015 -1.27222e-014 -1.79039 -8.32643 3.42775 
38.8192 95.132 -32.5161 -2.12621 -2.96081 -15.31 0.232629 2.71014 -0.981168 4.12505 -1.77758 16.5627 -0.695114 14.5815 9.69451 2.99751 -9.35847 0.209704 1.71429 -4.71004 -0.735919 -6.47504 -7.53486 1.14131 -1.25653 12.0738 2.43804 -3.30816 -4.36479 4.59275 3.29944 -11.1447 4.00129 0.5126 5.41585 -1.97669 0.512603 5.41587 -1.97671 2.97549 -0.66322 3.37616 -22.649 5.1899 -11.7166 -42.7164 35.346 -4.69932 15.1471 -3.07752 -31.0507 9.80196 0.703596 -5.47817 9.54166e-015 -7.95139e-016 -1.59028e-015 9.54166e-015 -2.38542e-015 -0 22.133 6.65702 16.4347 50.0451 15.6759 -5.36699 -30.5955 2.80245 35.8117 0.158796 -10.0822 5.82171 -1.59028e-015 -9.54166e-015 -3.18055e-015 -1.59028e-015 -9.54167e-015 -3.18055e-015 -1.16592 -8.29569 4.41062 
